HIERARCHY
ROOT hip
{
  OFFSET 0 0 0
  CHANNELS 6 Xposition Yposition Zposition Zrotation Yrotation Xrotation
  JOINT abdomen
  {
    OFFSET 0 20.6881 -0.73152
    CHANNELS 3 Zrotation Xrotation Yrotation
    JOINT chest
    {
      OFFSET 0 11.7043 -0.48768
      CHANNELS 3 Zrotation Xrotation Yrotation
      JOINT neck
      {
        OFFSET 0 22.1894 -2.19456
        CHANNELS 3 Zrotation Xrotation Yrotation
        JOINT head
        {
          OFFSET -0.24384 7.07133 1.2192
          CHANNELS 3 Zrotation Xrotation Yrotation
          JOINT leftEye
          {
            OFFSET 4.14528 8.04674 8.04672
            CHANNELS 3 Zrotation Xrotation Yrotation
            End Site
            {
              OFFSET 1 0 0
            }
          }
          JOINT rightEye
          {
            OFFSET -3.6576 8.04674 8.04672
            CHANNELS 3 Zrotation Xrotation Yrotation
            End Site
            {
              OFFSET 1 0 0
            }
          }
        }
      }
      JOINT rCollar
      {
        OFFSET -2.68224 19.2634 -4.8768
        CHANNELS 3 Zrotation Xrotation Yrotation
        JOINT rShldr
        {
          OFFSET -8.77824 -1.95073 1.46304
          CHANNELS 3 Zrotation Xrotation Yrotation
          JOINT rForeArm
          {
            OFFSET -28.1742 -1.7115 0.48768
            CHANNELS 3 Zrotation Xrotation Yrotation
            JOINT rHand
            {
              OFFSET -22.5879 0.773209 7.07136
              CHANNELS 3 Zrotation Xrotation Yrotation
              JOINT rThumb1
              {
                OFFSET -1.2192 -0.487915 3.41376
                CHANNELS 3 Zrotation Xrotation Yrotation
                JOINT rThumb2
                {
                  OFFSET -3.37035 -0.52449 3.41376
                  CHANNELS 3 Zrotation Xrotation Yrotation
                  End Site
                  {
                    OFFSET -1.78271 -1.18214 1.43049
                  }
                }
              }
              JOINT rIndex1
              {
                OFFSET -7.75947 0.938293 5.60832
                CHANNELS 3 Zrotation Xrotation Yrotation
                JOINT rIndex2
                {
                  OFFSET -2.54057 -0.884171 1.56538
                  CHANNELS 3 Zrotation Xrotation Yrotation
                  End Site
                  {
                    OFFSET -1.62519 -0.234802 1.16502
                  }
                }
              }
              JOINT rMid1
              {
                OFFSET -8.24714 1.18213 3.41376
                CHANNELS 3 Zrotation Xrotation Yrotation
                JOINT rMid2
                {
                  OFFSET -3.10165 -0.590103 1.0647
                  CHANNELS 3 Zrotation Xrotation Yrotation
                  End Site
                  {
                    OFFSET -2.48547 -0.328903 0.83742
                  }
                }
              }
              JOINT rRing1
              {
                OFFSET -8.82822 0.546677 1.51678
                CHANNELS 3 Zrotation Xrotation Yrotation
                JOINT rRing2
                {
                  OFFSET -2.60934 -0.819778 -0.0198488
                  CHANNELS 3 Zrotation Xrotation Yrotation
                  End Site
                  {
                    OFFSET -2.33842 -0.294052 0.168128
                  }
                }
              }
              JOINT rPinky1
              {
                OFFSET -8.27202 -0.0477905 -0.4584
                CHANNELS 3 Zrotation Xrotation Yrotation
                JOINT rPinky2
                {
                  OFFSET -1.82734 -0.647385 -0.700984
                  CHANNELS 3 Zrotation Xrotation Yrotation
                  End Site
                  {
                    OFFSET -1.69225 -0.51767 -0.607171
                  }
                }
              }
            }
          }
        }
      }
      JOINT lCollar
      {
        OFFSET 2.68224 19.2634 -4.8768
        CHANNELS 3 Zrotation Xrotation Yrotation
        JOINT lShldr
        {
          OFFSET 8.77824 -1.95073 1.46304
          CHANNELS 3 Zrotation Xrotation Yrotation
          JOINT lForeArm
          {
            OFFSET 28.1742 -1.7115 0.48768
            CHANNELS 3 Zrotation Xrotation Yrotation
            JOINT lHand
            {
              OFFSET 22.5879 0.773209 7.07136
              CHANNELS 3 Zrotation Xrotation Yrotation
              JOINT lThumb1
              {
                OFFSET 1.2192 -0.487915 3.41376
                CHANNELS 3 Zrotation Xrotation Yrotation
                JOINT lThumb2
                {
                  OFFSET 3.37035 -0.52449 3.41376
                  CHANNELS 3 Zrotation Xrotation Yrotation
                  End Site
                  {
                    OFFSET 1.78271 -1.18214 1.43049
                  }
                }
              }
              JOINT lIndex1
              {
                OFFSET 7.75947 0.938293 5.60832
                CHANNELS 3 Zrotation Xrotation Yrotation
                JOINT lIndex2
                {
                  OFFSET 2.54057 -0.884171 1.56538
                  CHANNELS 3 Zrotation Xrotation Yrotation
                  End Site
                  {
                    OFFSET 1.62519 -0.234802 1.16502
                  }
                }
              }
              JOINT lMid1
              {
                OFFSET 8.24714 1.18213 3.41376
                CHANNELS 3 Zrotation Xrotation Yrotation
                JOINT lMid2
                {
                  OFFSET 3.10165 -0.590103 1.0647
                  CHANNELS 3 Zrotation Xrotation Yrotation
                  End Site
                  {
                    OFFSET 2.48547 -0.328903 0.83742
                  }
                }
              }
              JOINT lRing1
              {
                OFFSET 8.82822 0.546677 1.51678
                CHANNELS 3 Zrotation Xrotation Yrotation
                JOINT lRing2
                {
                  OFFSET 2.60934 -0.819778 -0.0198488
                  CHANNELS 3 Zrotation Xrotation Yrotation
                  End Site
                  {
                    OFFSET 2.33842 -0.294052 0.168128
                  }
                }
              }
              JOINT lPinky1
              {
                OFFSET 8.27202 -0.0477905 -0.4584
                CHANNELS 3 Zrotation Xrotation Yrotation
                JOINT lPinky2
                {
                  OFFSET 1.82734 -0.647385 -0.700984
                  CHANNELS 3 Zrotation Xrotation Yrotation
                  End Site
                  {
                    OFFSET 1.69225 -0.51767 -0.607171
                  }
                }
              }
            }
          }
        }
      }
    }
  }
  JOINT rButtock
  {
    OFFSET -8.77824 4.35084 1.2192
    CHANNELS 3 Zrotation Xrotation Yrotation
    JOINT rThigh
    {
      OFFSET 0 -1.70687 -2.19456
      CHANNELS 3 Zrotation Xrotation Yrotation
      JOINT rShin
      {
        OFFSET 0 -36.8199 0.73152
        CHANNELS 3 Zrotation Xrotation Yrotation
        JOINT rFoot
        {
          OFFSET 0.73152 -45.1104 -5.12064
          CHANNELS 3 Zrotation Xrotation Yrotation
          End Site
          {
            OFFSET -1.1221 -3.69964 12.103
          }
        }
      }
    }
  }
  JOINT lButtock
  {
    OFFSET 8.77824 4.35084 1.2192
    CHANNELS 3 Zrotation Xrotation Yrotation
    JOINT lThigh
    {
      OFFSET 0 -1.70687 -2.19456
      CHANNELS 3 Zrotation Xrotation Yrotation
      JOINT lShin
      {
        OFFSET 0 -36.8199 0.73152
        CHANNELS 3 Zrotation Xrotation Yrotation
        JOINT lFoot
        {
          OFFSET -0.73152 -45.1104 -5.12064
          CHANNELS 3 Zrotation Xrotation Yrotation
          End Site
          {
            OFFSET 1.1221 -3.69964 12.103
          }
        }
      }
    }
  }
}
MOTION
Frames:	5
Frame Time:	0.00833333
-1.63781 82.4855 46.5427 0.0 0.0 0.0 -4.35894 0.00629241 -0.117455 -1.20158 0.0324762 -0.207681 -6.92007e-14 -7.95139e-16 1.98785e-16 -2.07137e-13 3.18055e-15 4.45712e-16 -0.0 0.0 0.0 -0.0 0.0 0.0 -3.45924e-14 -2.48093e-16 1.98785e-16 -7.20948e-13 -5.14977e-15 -3.97569e-16 -1.2491e-11 3.58369e-12 1.27222e-13 -1.43318e-10 -4.66953e-12 1.59028e-14 -3.38013e-10 -2.35423e-12 3.59403e-13 -5.83744e-10 -4.06475e-12 6.11462e-13 -3.38004e-10 -2.34884e-12 3.435e-13 7.73091 5.47488 0.417314 -3.38013e-10 -2.35421e-12 3.53042e-13 2.90554 0.965183 0.102902 -3.38003e-10 -2.35391e-12 3.48271e-13 10.2786 0.731801 0.0259123 -3.38019e-10 -2.35321e-12 3.59403e-13 2.22167 -0.733487 -0.20892 -3.45869e-14 -2.47704e-16 -4.96962e-17 -7.27825e-13 -4.89507e-15 -2.18663e-15 -1.25463e-11 -3.90512e-12 1.30403e-13 -1.43259e-10 2.83964e-12 1.27222e-14 -3.37995e-10 -2.31102e-12 3.33958e-13 -5.83706e-10 -3.98842e-12 5.86017e-13 -3.38003e-10 -2.30749e-12 3.37139e-13 -7.73091 5.47488 -0.417314 -3.37994e-10 -2.31167e-12 3.27597e-13 -2.90554 0.965183 -0.102902 -3.38003e-10 -2.31028e-12 3.34753e-13 -10.2786 0.731801 -0.0259123 -3.37992e-10 -2.30948e-12 3.24417e-13 -2.22167 -0.733487 0.20892 -2.03217e-16 0.0 -3.88251e-19 -2.88816 -1.94435 0.0304155 -0.00797265 -2.07874 -0.065093 -0.422291 4.00217 0.127121 2.03217e-16 0.0 3.88251e-19 -3.72548 -11.2507 0.483808 -0.0143127 14.7725 -0.388792 0.544935 -3.54242 0.0125012
-3.31683 82.2996 45.3198 -5.7407 -4.2892 5.088 -3.32581 -2.36836 0.0943375 -0.860053 -2.56306 -0.183686 -3.65498 4.08621 -3.64564 5.15165 -1.67732 -7.03355 -0.0 0.0 0.0 -0.0 0.0 0.0 -5.37966e-14 -8.21983e-15 -1.62289e-14 22.8628 4.7544 -2.64378 -3.32848 -1.37004 5.34306 0.253615 11.2124 1.46906 -5.51543e-10 -2.48082e-11 3.05108e-10 -9.42567e-10 -5.84004e-11 5.36213e-10 -5.51535e-10 -2.48048e-11 3.05091e-10 7.73091 5.47488 0.417314 -5.51543e-10 -2.48088e-11 3.05103e-10 2.90554 0.965183 0.102902 -5.51533e-10 -2.48084e-11 3.05099e-10 10.2786 0.731801 0.0259123 -5.51548e-10 -2.48075e-11 3.05109e-10 2.22167 -0.733487 -0.20892 -5.38193e-14 -8.21709e-15 -1.64785e-14 -23.5146 6.61269 2.94155 3.04631 -1.21179 -4.92887 -0.0993879 7.00298 -0.957859 4.25266e-10 4.6657e-10 7.15232e-11 7.35621e-10 7.9417e-10 1.08613e-10 4.25259e-10 4.66572e-10 7.153e-11 -7.73091 5.47488 -0.417314 4.25266e-10 4.66569e-10 7.15198e-11 -2.90554 0.965183 -0.102902 4.2526e-10 4.66569e-10 7.15246e-11 -10.2786 0.731801 -0.0259123 4.25271e-10 4.66571e-10 7.15147e-11 -2.22167 -0.733487 0.20892 -2.03217e-16 0.0 -3.88251e-19 -2.00239 -1.92485 6.49757 0.00407947 -1.77388 0.0427183 -0.769521 1.5143 -5.33629 2.03217e-16 0.0 3.88251e-19 -5.17214 -8.89059 -10.5317 -0.0121055 14.1352 -0.313703 1.14508 -7.86348 13.4669
-3.33195 82.3022 45.3188 -5.803 -4.3236 5.0868 -2.22268 -4.87384 0.307701 -0.481527 -5.29764 -0.16043 -6.96002 8.34201 -7.55882 10.1495 -3.36447 -14.4817 -0.0 0.0 0.0 -0.0 0.0 0.0 -7.67006e-14 -1.57157e-14 -3.4191e-14 47.503 9.75045 -5.48729 -6.57441 -2.78096 11.0073 -0.152758 23.0559 3.22378 -7.95514e-10 -5.34427e-11 6.49698e-10 -1.35269e-09 -1.25301e-10 1.14171e-09 -7.95507e-10 -5.34412e-11 6.49681e-10 7.73091 5.47488 0.417314 -7.95514e-10 -5.34438e-11 6.49695e-10 2.90554 0.965183 0.102902 -7.95505e-10 -5.34432e-11 6.49693e-10 10.2786 0.731801 0.0259123 -7.95519e-10 -5.34422e-11 6.49701e-10 2.22167 -0.733487 -0.20892 -7.67538e-14 -1.57104e-14 -3.44425e-14 -49.1372 13.5189 6.17199 6.03776 -2.46108 -10.1413 0.0575826 14.3947 -2.01853 1.2747e-09 9.95855e-10 1.56389e-10 2.20402e-09 1.69529e-09 2.38424e-10 1.27469e-09 9.95856e-10 1.56399e-10 -7.73091 5.47488 -0.417314 1.2747e-09 9.95855e-10 1.56388e-10 -2.90554 0.965183 -0.102902 1.2747e-09 9.95854e-10 1.56391e-10 -10.2786 0.731801 -0.0259123 1.2747e-09 9.95856e-10 1.56381e-10 -2.22167 -0.733487 0.20892 -2.03217e-16 0.0 -3.88251e-19 -1.07462 -1.87412 13.3568 0.0156165 -1.45099 0.156696 -1.65176 -1.08223 -11.1284 2.03217e-16 0.0 3.88251e-19 -5.73224 -6.21742 -22.0342 -0.00785504 13.4637 -0.23477 3.9355 -11.4187 28.0231
-3.32537 82.3005 45.3201 -5.7583 -4.3633 5.0865 -1.20657 -7.11738 0.521702 -0.170515 -7.75414 -0.136392 -9.38573 12.0581 -11.1583 14.247 -4.72964 -21.1671 -0.0 0.0 0.0 -0.0 0.0 0.0 -9.22051e-14 -2.41633e-14 -4.90843e-14 69.935 14.1398 -8.15263 -9.22842 -3.96739 16.0641 -1.25433 33.5397 5.18877 -9.78602e-10 -6.97162e-11 9.14604e-10 -1.66021e-09 -1.67072e-10 1.60742e-09 -9.78596e-10 -6.97167e-11 9.14587e-10 7.73091 5.47488 0.417314 -9.78603e-10 -6.9718e-11 9.14603e-10 2.90554 0.965183 0.102902 -9.78593e-10 -6.97174e-11 9.14602e-10 10.2786 0.731801 0.0259123 -9.78607e-10 -6.97162e-11 9.14609e-10 2.22167 -0.733487 -0.20892 -9.22841e-14 -2.41559e-14 -4.93363e-14 -72.6782 19.6224 9.31102 8.52019 -3.5279 -14.812 0.446379 20.9846 -3.05492 1.95179e-09 1.40433e-09 2.13902e-10 3.37428e-09 2.39049e-09 3.24667e-10 1.95178e-09 1.40433e-09 2.13916e-10 -7.73091 5.47488 -0.417314 1.95179e-09 1.40433e-09 2.13904e-10 -2.90554 0.965183 -0.102902 1.95179e-09 1.40433e-09 2.13904e-10 -10.2786 0.731801 -0.0259123 1.9518e-09 1.40433e-09 2.13895e-10 -2.22167 -0.733487 0.20892 -2.03217e-16 0.0 -3.88251e-19 -0.246685 -1.81368 19.431 0.0247413 -1.16415 0.258247 -2.87056 -3.30394 -16.2847 2.03217e-16 0.0 3.88251e-19 -5.40186 -3.9092 -32.2444 -0.00255299 12.8604 -0.164868 7.94398 -13.0677 41.2786
-3.30826 82.298 45.3216 -5.6716 -4.3772 5.0837 -0.440637 -8.70627 0.734137 -0.0319939 -9.51539 -0.109953 -10.7272 14.6141 -13.7651 16.9305 -5.57583 -25.8826 -0.0 0.0 0.0 -0.0 0.0 0.0 -8.92108e-14 -3.49906e-14 -5.63058e-14 85.8934 17.1276 -10.1632 -10.9359 -4.72981 19.5687 -2.58053 40.716 6.94708 -1.00948e-09 -5.50872e-11 9.80301e-10 -1.71126e-09 -1.46016e-10 1.72365e-09 -1.00948e-09 -5.50896e-11 9.80285e-10 7.73091 5.47488 0.417314 -1.00948e-09 -5.50901e-11 9.80301e-10 2.90554 0.965183 0.102902 -1.00947e-09 -5.50898e-11 9.80301e-10 10.2786 0.731801 0.0259123 -1.00949e-09 -5.50884e-11 9.80307e-10 2.22167 -0.733487 -0.20892 -8.93038e-14 -3.49816e-14 -5.65542e-14 -89.5052 23.9181 11.7731 10.1612 -4.23996 -18.1042 0.877 25.5932 -3.8598 2.19802e-09 1.51078e-09 2.03034e-10 3.79915e-09 2.57088e-09 3.01994e-10 2.19802e-09 1.51078e-09 2.0305e-10 -7.73091 5.47488 -0.417314 2.19802e-09 1.51078e-09 2.03037e-10 -2.90554 0.965183 -0.102902 2.19802e-09 1.51078e-09 2.03036e-10 -10.2786 0.731801 -0.0259123 2.19803e-09 1.51078e-09 2.03028e-10 -2.22167 -0.733487 0.20892 -2.03217e-16 0.0 -3.88251e-19 0.34948 -1.7788 23.5434 0.0302771 -0.967482 0.328788 -3.93614 -4.76939 -19.8049 2.03217e-16 0.0 3.88251e-19 -4.71836 -2.4504 -39.387 0.00179103 12.4275 -0.116631 11.2804 -13.1048 50.5465
